<svg xmlns="http://www.w3.org/2000/svg" xmlns:xlink="http://www.w3.org/1999/xlink" width="240" zoomAndPan="magnify" viewBox="0 0 180 82.499998" height="110" preserveAspectRatio="xMidYMid meet" version="1.0"><defs><g/><clipPath id="67042dccf9"><path d="M 15.035156 23.015625 L 50 23.015625 L 50 53 L 15.035156 53 Z M 15.035156 23.015625 " clip-rule="nonzero"/></clipPath></defs><path fill="#fbca01" d="M 53.871094 34.738281 C 53.984375 34.96875 54.09375 35.222656 54.199219 35.46875 C 54.835938 36.976562 55.285156 38.542969 55.542969 40.152344 C 55.714844 41.21875 55.800781 42.300781 55.800781 43.398438 C 55.800781 46.148438 55.261719 48.820312 54.199219 51.332031 C 53.171875 53.761719 51.703125 55.941406 49.832031 57.8125 C 47.960938 59.683594 45.78125 61.152344 43.355469 62.179688 C 40.839844 63.242188 38.167969 63.785156 35.417969 63.785156 C 32.667969 63.785156 30 63.246094 27.484375 62.183594 C 25.304688 61.261719 23.324219 59.992188 21.585938 58.378906 L 35.417969 58.378906 C 43.671875 58.378906 50.386719 51.652344 50.386719 43.402344 C 50.386719 42.285156 50.261719 41.191406 50.03125 40.140625 L 35.421875 40.140625 L 35.421875 40.148438 C 33.601562 40.152344 32.152344 41.625 32.152344 43.421875 C 32.152344 45.21875 33.617188 46.691406 35.417969 46.691406 L 43.464844 46.691406 C 43.035156 47.746094 42.390625 48.71875 41.558594 49.550781 C 39.917969 51.191406 37.738281 52.082031 35.417969 52.082031 C 33.101562 52.082031 30.921875 51.183594 29.28125 49.546875 C 27.640625 47.90625 26.738281 45.730469 26.738281 43.410156 C 26.738281 41.089844 27.640625 38.910156 29.285156 37.273438 C 30.921875 35.636719 33.101562 34.738281 35.421875 34.738281 Z M 53.871094 34.738281 " fill-opacity="1" fill-rule="nonzero"/><g clip-path="url(#67042dccf9)"><path fill="#ffffff" d="M 15.039062 43.398438 C 15.039062 40.648438 15.578125 37.976562 16.640625 35.464844 C 17.667969 33.035156 19.136719 30.855469 21.007812 28.984375 C 22.878906 27.117188 25.058594 25.644531 27.488281 24.617188 C 30 23.554688 32.671875 23.015625 35.421875 23.015625 C 38.171875 23.015625 40.839844 23.550781 43.355469 24.613281 C 45.535156 25.535156 47.519531 26.804688 49.253906 28.417969 L 35.421875 28.417969 C 27.167969 28.417969 20.453125 35.144531 20.453125 43.394531 C 20.453125 46.632812 21.484375 49.621094 23.238281 52.09375 L 16.976562 52.09375 C 16.863281 51.828125 16.75 51.589844 16.644531 51.335938 C 15.578125 48.824219 15.039062 46.152344 15.039062 43.398438 Z M 15.039062 43.398438 " fill-opacity="1" fill-rule="nonzero"/></g><g fill="#ffffff" fill-opacity="1"><g transform="translate(59.67985, 41.385086)"><g><path d="M 2.953125 -3.515625 C 2.953125 -2.953125 3.160156 -2.503906 3.578125 -2.171875 C 3.992188 -1.835938 4.585938 -1.671875 5.359375 -1.671875 C 6.140625 -1.671875 6.734375 -1.796875 7.140625 -2.046875 C 7.546875 -2.296875 7.75 -2.664062 7.75 -3.15625 C 7.75 -3.445312 7.644531 -3.695312 7.4375 -3.90625 C 7.226562 -4.113281 6.726562 -4.3125 5.9375 -4.5 L 4 -4.953125 C 2.769531 -5.242188 1.929688 -5.640625 1.484375 -6.140625 C 1.046875 -6.640625 0.828125 -7.328125 0.828125 -8.203125 C 0.828125 -9.234375 1.191406 -10.078125 1.921875 -10.734375 C 2.660156 -11.390625 3.765625 -11.71875 5.234375 -11.71875 C 6.679688 -11.71875 7.78125 -11.347656 8.53125 -10.609375 C 9.289062 -9.878906 9.671875 -9.019531 9.671875 -8.03125 L 7.390625 -8.03125 C 7.335938 -8.59375 7.117188 -9.019531 6.734375 -9.3125 C 6.347656 -9.601562 5.785156 -9.75 5.046875 -9.75 C 4.453125 -9.75 3.972656 -9.625 3.609375 -9.375 C 3.242188 -9.132812 3.0625 -8.800781 3.0625 -8.375 C 3.0625 -8.09375 3.140625 -7.851562 3.296875 -7.65625 C 3.460938 -7.46875 3.722656 -7.328125 4.078125 -7.234375 L 7.125 -6.484375 C 8.226562 -6.210938 8.988281 -5.820312 9.40625 -5.3125 C 9.832031 -4.8125 10.046875 -4.1875 10.046875 -3.4375 C 10.046875 -2.1875 9.613281 -1.25 8.75 -0.625 C 7.882812 -0.0078125 6.816406 0.296875 5.546875 0.296875 C 3.898438 0.296875 2.671875 -0.0507812 1.859375 -0.75 C 1.054688 -1.445312 0.65625 -2.367188 0.65625 -3.515625 Z M 2.953125 -3.515625 "/></g></g></g><g fill="#ffffff" fill-opacity="1"><g transform="translate(70.339197, 41.385086)"><g><path d="M 10.34375 -3.984375 C 10.34375 -2.585938 9.953125 -1.523438 9.171875 -0.796875 C 8.390625 -0.0664062 7.210938 0.296875 5.640625 0.296875 C 4.265625 0.296875 3.164062 -0.0507812 2.34375 -0.75 C 1.53125 -1.445312 1.125 -2.488281 1.125 -3.875 L 1.125 -11.421875 L 3.5625 -11.421875 L 3.5625 -4 C 3.5625 -3.257812 3.742188 -2.691406 4.109375 -2.296875 C 4.484375 -1.910156 5.015625 -1.71875 5.703125 -1.71875 C 6.390625 -1.71875 6.925781 -1.894531 7.3125 -2.25 C 7.707031 -2.613281 7.90625 -3.164062 7.90625 -3.90625 L 7.90625 -11.421875 L 10.34375 -11.421875 Z M 10.34375 -3.984375 "/></g></g></g><g fill="#ffffff" fill-opacity="1"><g transform="translate(81.798183, 41.385086)"><g><path d="M 6.0625 0 L 3.6875 0 L 3.6875 -9.390625 L 0.234375 -9.390625 L 0.234375 -11.421875 L 9.515625 -11.421875 L 9.515625 -9.390625 L 6.0625 -9.390625 Z M 6.0625 0 "/></g></g></g><g fill="#ffffff" fill-opacity="1"><g transform="translate(91.549189, 41.385086)"><g><path d="M 3.546875 -2.0625 L 9.234375 -2.0625 L 9.234375 0 L 1.171875 0 L 1.171875 -11.421875 L 3.546875 -11.421875 Z M 3.546875 -2.0625 "/></g></g></g><g fill="#ffffff" fill-opacity="1"><g transform="translate(101.044005, 41.385086)"><g><path d="M 9.5625 -9.390625 L 3.5 -9.390625 L 3.5 -7 L 9.078125 -7 L 9.078125 -4.984375 L 3.5 -4.984375 L 3.5 -2.015625 L 9.828125 -2.015625 L 9.828125 0 L 1.171875 0 L 1.171875 -11.421875 L 9.5625 -11.421875 Z M 9.5625 -9.390625 "/></g></g></g><g fill="#ffffff" fill-opacity="1"><g transform="translate(111.571365, 41.385086)"><g><path d="M 7.65625 -3.3125 C 7.65625 -2.101562 7.347656 -1.203125 6.734375 -0.609375 C 6.128906 -0.015625 5.253906 0.28125 4.109375 0.28125 C 2.773438 0.28125 1.804688 -0.015625 1.203125 -0.609375 C 0.597656 -1.210938 0.300781 -2.1875 0.3125 -3.53125 L 0.3125 -4.3125 L 2.546875 -4.3125 L 2.546875 -4.078125 C 2.546875 -3.078125 2.648438 -2.421875 2.859375 -2.109375 C 3.066406 -1.796875 3.425781 -1.640625 3.9375 -1.640625 C 4.414062 -1.640625 4.757812 -1.753906 4.96875 -1.984375 C 5.175781 -2.222656 5.28125 -2.640625 5.28125 -3.234375 L 5.28125 -11.421875 L 7.65625 -11.421875 Z M 7.65625 -3.3125 "/></g></g></g><g fill="#ffffff" fill-opacity="1"><g transform="translate(58.783289, 54.828629)"><g><path d="M 1.765625 0 L 1.765625 -7.078125 L 0.84375 -7.078125 L 0.84375 0 Z M 1.765625 0 "/></g></g></g><g fill="#ffffff" fill-opacity="1"><g transform="translate(61.396411, 54.828629)"><g><path d="M 3.375 -5.25 C 2.609375 -5.25 2 -4.953125 1.65625 -4.40625 L 1.65625 -5.125 L 0.796875 -5.125 L 0.796875 0 L 1.703125 0 L 1.703125 -2.859375 C 1.703125 -4.078125 2.46875 -4.46875 3.171875 -4.46875 C 3.859375 -4.46875 4.1875 -4.078125 4.1875 -3.375 L 4.1875 0 L 5.109375 0 L 5.109375 -3.5625 C 5.109375 -4.640625 4.4375 -5.25 3.375 -5.25 Z M 3.375 -5.25 "/></g></g></g><g fill="#ffffff" fill-opacity="1"><g transform="translate(67.298294, 54.828629)"><g><path d="M 4.265625 -4.515625 C 3.9375 -4.953125 3.375 -5.234375 2.71875 -5.234375 C 1.40625 -5.234375 0.5 -4.1875 0.5 -2.640625 C 0.5 -1.046875 1.34375 0.109375 2.734375 0.109375 C 3.484375 0.109375 4.078125 -0.28125 4.375 -0.8125 L 4.375 0 L 5.171875 0 L 5.171875 -7.078125 L 4.265625 -7.078125 Z M 2.828125 -0.671875 C 1.9375 -0.671875 1.40625 -1.453125 1.40625 -2.640625 C 1.40625 -3.8125 1.953125 -4.453125 2.84375 -4.453125 C 3.703125 -4.453125 4.3125 -3.828125 4.3125 -2.625 C 4.3125 -1.40625 3.671875 -0.671875 2.828125 -0.671875 Z M 2.828125 -0.671875 "/></g></g></g><g fill="#ffffff" fill-opacity="1"><g transform="translate(73.269736, 54.828629)"><g><path d="M 4.1875 -2.28125 C 4.1875 -1.046875 3.4375 -0.671875 2.734375 -0.671875 C 2.03125 -0.671875 1.703125 -1.046875 1.703125 -1.75 L 1.703125 -5.125 L 0.796875 -5.125 L 0.796875 -1.5625 C 0.796875 -0.484375 1.453125 0.125 2.53125 0.125 C 3.296875 0.125 3.90625 -0.171875 4.25 -0.71875 L 4.25 0 L 5.109375 0 L 5.109375 -5.125 L 4.1875 -5.125 Z M 4.1875 -2.28125 "/></g></g></g><g fill="#ffffff" fill-opacity="1"><g transform="translate(79.17162, 54.828629)"><g><path d="M 2.53125 0.125 C 3.875 0.125 4.671875 -0.484375 4.671875 -1.484375 C 4.671875 -2.234375 4.21875 -2.703125 3.15625 -2.9375 L 2.171875 -3.15625 C 1.5625 -3.296875 1.375 -3.515625 1.375 -3.84375 C 1.375 -4.296875 1.765625 -4.515625 2.40625 -4.515625 C 3.125 -4.515625 3.515625 -4.21875 3.625 -3.640625 L 4.515625 -3.671875 C 4.375 -4.75 3.578125 -5.25 2.4375 -5.25 C 1.171875 -5.25 0.53125 -4.65625 0.53125 -3.765625 C 0.53125 -3.046875 0.953125 -2.578125 1.953125 -2.375 L 2.984375 -2.15625 C 3.515625 -2.046875 3.796875 -1.8125 3.796875 -1.40625 C 3.796875 -0.921875 3.40625 -0.609375 2.5625 -0.609375 C 1.78125 -0.609375 1.34375 -0.90625 1.265625 -1.625 L 0.390625 -1.578125 C 0.515625 -0.4375 1.25 0.125 2.53125 0.125 Z M 2.53125 0.125 "/></g></g></g><g fill="#ffffff" fill-opacity="1"><g transform="translate(84.189221, 54.828629)"><g><path d="M 3.25 -4.421875 L 3.25 -5.125 L 2.078125 -5.09375 L 2.078125 -6.703125 L 1.15625 -6.703125 L 1.15625 -5.09375 L 0.390625 -5.125 L 0.390625 -4.421875 L 1.15625 -4.46875 L 1.15625 -1.140625 C 1.15625 -0.34375 1.515625 0 2.3125 0 L 3.234375 0 L 3.234375 -0.765625 L 2.578125 -0.765625 C 2.203125 -0.765625 2.078125 -0.890625 2.078125 -1.265625 L 2.078125 -4.46875 Z M 3.25 -4.421875 "/></g></g></g><g fill="#ffffff" fill-opacity="1"><g transform="translate(87.736312, 54.828629)"><g><path d="M 3.234375 -5.265625 C 2.453125 -5.265625 1.953125 -4.828125 1.65625 -4.140625 L 1.65625 -5.125 L 0.796875 -5.125 L 0.796875 0 L 1.703125 0 L 1.703125 -2.796875 C 1.75 -3.84375 2.5 -4.375 3.1875 -4.375 C 3.265625 -4.375 3.375 -4.375 3.515625 -4.359375 L 3.515625 -5.25 C 3.421875 -5.25 3.328125 -5.265625 3.234375 -5.265625 Z M 3.234375 -5.265625 "/></g></g></g><g fill="#ffffff" fill-opacity="1"><g transform="translate(91.392706, 54.828629)"><g><path d="M 1.703125 -6.09375 L 1.703125 -7.078125 L 0.796875 -7.078125 L 0.796875 -6.09375 Z M 1.703125 0 L 1.703125 -5.125 L 0.796875 -5.125 L 0.796875 0 Z M 1.703125 0 "/></g></g></g><g fill="#ffffff" fill-opacity="1"><g transform="translate(93.896536, 54.828629)"><g><path d="M 5.3125 -0.671875 C 4.984375 -0.671875 4.875 -0.78125 4.875 -1.125 L 4.875 -3.625 C 4.875 -4.75 4.140625 -5.265625 2.859375 -5.265625 C 1.546875 -5.265625 0.8125 -4.734375 0.71875 -3.59375 L 1.625 -3.59375 C 1.6875 -4.28125 2.0625 -4.515625 2.796875 -4.515625 C 3.59375 -4.515625 3.9375 -4.25 3.9375 -3.71875 L 3.9375 -3.515625 C 3.9375 -3.28125 3.828125 -3.15625 3.578125 -3.125 L 2.265625 -2.96875 C 1.03125 -2.796875 0.515625 -2.203125 0.515625 -1.359375 C 0.515625 -0.421875 1.1875 0.125 2.234375 0.125 C 3.109375 0.125 3.765625 -0.265625 4.09375 -0.75 C 4.140625 -0.25 4.4375 0 4.984375 0 L 5.46875 0 L 5.46875 -0.671875 Z M 2.40625 -0.578125 C 1.8125 -0.578125 1.421875 -0.875 1.421875 -1.40625 C 1.421875 -1.859375 1.703125 -2.171875 2.421875 -2.28125 L 3.9375 -2.515625 L 3.9375 -1.796875 C 3.9375 -1.140625 3.234375 -0.578125 2.40625 -0.578125 Z M 2.40625 -0.578125 "/></g></g></g><g fill="#ffffff" fill-opacity="1"><g transform="translate(99.559962, 54.828629)"><g><path d="M 1.703125 0 L 1.703125 -7.078125 L 0.796875 -7.078125 L 0.796875 0 Z M 1.703125 0 "/></g></g></g><g fill="#ffffff" fill-opacity="1"><g transform="translate(102.063792, 54.828629)"><g/></g></g><g fill="#ffffff" fill-opacity="1"><g transform="translate(104.746473, 54.828629)"><g><path d="M 3.828125 0.171875 C 5.5 0.171875 6.59375 -0.875 6.828125 -2.578125 L 5.90625 -2.578125 C 5.75 -1.296875 4.984375 -0.65625 3.859375 -0.65625 C 2.421875 -0.65625 1.578125 -1.765625 1.578125 -3.53125 C 1.578125 -5.3125 2.4375 -6.375 3.859375 -6.375 C 4.84375 -6.375 5.578125 -5.875 5.796875 -4.9375 L 6.734375 -4.9375 C 6.515625 -6.328125 5.3125 -7.203125 3.828125 -7.203125 C 1.875 -7.203125 0.640625 -5.703125 0.640625 -3.53125 C 0.640625 -1.390625 1.84375 0.171875 3.828125 0.171875 Z M 3.828125 0.171875 "/></g></g></g><g fill="#ffffff" fill-opacity="1"><g transform="translate(112.019506, 54.828629)"><g><path d="M 2.96875 0.125 C 4.40625 0.125 5.4375 -1 5.4375 -2.609375 C 5.4375 -4.234375 4.421875 -5.25 2.984375 -5.25 C 1.515625 -5.25 0.5 -4.21875 0.5 -2.5625 C 0.5 -0.953125 1.484375 0.125 2.96875 0.125 Z M 2.96875 -0.640625 C 2 -0.640625 1.40625 -1.40625 1.40625 -2.5625 C 1.40625 -3.734375 1.984375 -4.484375 2.96875 -4.484375 C 3.953125 -4.484375 4.515625 -3.765625 4.515625 -2.609375 C 4.515625 -1.4375 3.953125 -0.640625 2.96875 -0.640625 Z M 2.96875 -0.640625 "/></g></g></g><g fill="#ffffff" fill-opacity="1"><g transform="translate(117.951203, 54.828629)"><g><path d="M 3.234375 -5.265625 C 2.453125 -5.265625 1.953125 -4.828125 1.65625 -4.140625 L 1.65625 -5.125 L 0.796875 -5.125 L 0.796875 0 L 1.703125 0 L 1.703125 -2.796875 C 1.75 -3.84375 2.5 -4.375 3.1875 -4.375 C 3.265625 -4.375 3.375 -4.375 3.515625 -4.359375 L 3.515625 -5.25 C 3.421875 -5.25 3.328125 -5.265625 3.234375 -5.265625 Z M 3.234375 -5.265625 "/></g></g></g><g fill="#ffffff" fill-opacity="1"><g transform="translate(121.607597, 54.828629)"><g><path d="M 3.265625 -5.234375 C 2.515625 -5.234375 1.890625 -4.875 1.59375 -4.296875 L 1.59375 -5.125 L 0.796875 -5.125 L 0.796875 2.03125 L 1.703125 2.03125 L 1.703125 -0.625 C 2.03125 -0.1875 2.578125 0.109375 3.234375 0.109375 C 4.625 0.109375 5.46875 -1.09375 5.46875 -2.6875 C 5.46875 -4.234375 4.578125 -5.234375 3.265625 -5.234375 Z M 3.140625 -0.671875 C 2.28125 -0.671875 1.65625 -1.40625 1.65625 -2.625 C 1.65625 -3.828125 2.28125 -4.453125 3.140625 -4.453125 C 4.03125 -4.453125 4.5625 -3.859375 4.5625 -2.6875 C 4.5625 -1.484375 4.03125 -0.671875 3.140625 -0.671875 Z M 3.140625 -0.671875 "/></g></g></g><g fill="#ffffff" fill-opacity="1"><g transform="translate(127.57904, 54.828629)"><g><path d="M 2.96875 0.125 C 4.40625 0.125 5.4375 -1 5.4375 -2.609375 C 5.4375 -4.234375 4.421875 -5.25 2.984375 -5.25 C 1.515625 -5.25 0.5 -4.21875 0.5 -2.5625 C 0.5 -0.953125 1.484375 0.125 2.96875 0.125 Z M 2.96875 -0.640625 C 2 -0.640625 1.40625 -1.40625 1.40625 -2.5625 C 1.40625 -3.734375 1.984375 -4.484375 2.96875 -4.484375 C 3.953125 -4.484375 4.515625 -3.765625 4.515625 -2.609375 C 4.515625 -1.4375 3.953125 -0.640625 2.96875 -0.640625 Z M 2.96875 -0.640625 "/></g></g></g><g fill="#ffffff" fill-opacity="1"><g transform="translate(133.510737, 54.828629)"><g><path d="M 3.234375 -5.265625 C 2.453125 -5.265625 1.953125 -4.828125 1.65625 -4.140625 L 1.65625 -5.125 L 0.796875 -5.125 L 0.796875 0 L 1.703125 0 L 1.703125 -2.796875 C 1.75 -3.84375 2.5 -4.375 3.1875 -4.375 C 3.265625 -4.375 3.375 -4.375 3.515625 -4.359375 L 3.515625 -5.25 C 3.421875 -5.25 3.328125 -5.265625 3.234375 -5.265625 Z M 3.234375 -5.265625 "/></g></g></g><g fill="#ffffff" fill-opacity="1"><g transform="translate(137.167131, 54.828629)"><g><path d="M 5.3125 -0.671875 C 4.984375 -0.671875 4.875 -0.78125 4.875 -1.125 L 4.875 -3.625 C 4.875 -4.75 4.140625 -5.265625 2.859375 -5.265625 C 1.546875 -5.265625 0.8125 -4.734375 0.71875 -3.59375 L 1.625 -3.59375 C 1.6875 -4.28125 2.0625 -4.515625 2.796875 -4.515625 C 3.59375 -4.515625 3.9375 -4.25 3.9375 -3.71875 L 3.9375 -3.515625 C 3.9375 -3.28125 3.828125 -3.15625 3.578125 -3.125 L 2.265625 -2.96875 C 1.03125 -2.796875 0.515625 -2.203125 0.515625 -1.359375 C 0.515625 -0.421875 1.1875 0.125 2.234375 0.125 C 3.109375 0.125 3.765625 -0.265625 4.09375 -0.75 C 4.140625 -0.25 4.4375 0 4.984375 0 L 5.46875 0 L 5.46875 -0.671875 Z M 2.40625 -0.578125 C 1.8125 -0.578125 1.421875 -0.875 1.421875 -1.40625 C 1.421875 -1.859375 1.703125 -2.171875 2.421875 -2.28125 L 3.9375 -2.515625 L 3.9375 -1.796875 C 3.9375 -1.140625 3.234375 -0.578125 2.40625 -0.578125 Z M 2.40625 -0.578125 "/></g></g></g><g fill="#ffffff" fill-opacity="1"><g transform="translate(142.830557, 54.828629)"><g><path d="M 3.25 -4.421875 L 3.25 -5.125 L 2.078125 -5.09375 L 2.078125 -6.703125 L 1.15625 -6.703125 L 1.15625 -5.09375 L 0.390625 -5.125 L 0.390625 -4.421875 L 1.15625 -4.46875 L 1.15625 -1.140625 C 1.15625 -0.34375 1.515625 0 2.3125 0 L 3.234375 0 L 3.234375 -0.765625 L 2.578125 -0.765625 C 2.203125 -0.765625 2.078125 -0.890625 2.078125 -1.265625 L 2.078125 -4.46875 Z M 3.25 -4.421875 "/></g></g></g><g fill="#ffffff" fill-opacity="1"><g transform="translate(146.377648, 54.828629)"><g><path d="M 1.703125 -6.09375 L 1.703125 -7.078125 L 0.796875 -7.078125 L 0.796875 -6.09375 Z M 1.703125 0 L 1.703125 -5.125 L 0.796875 -5.125 L 0.796875 0 Z M 1.703125 0 "/></g></g></g><g fill="#ffffff" fill-opacity="1"><g transform="translate(148.881478, 54.828629)"><g><path d="M 2.96875 0.125 C 4.40625 0.125 5.4375 -1 5.4375 -2.609375 C 5.4375 -4.234375 4.421875 -5.25 2.984375 -5.25 C 1.515625 -5.25 0.5 -4.21875 0.5 -2.5625 C 0.5 -0.953125 1.484375 0.125 2.96875 0.125 Z M 2.96875 -0.640625 C 2 -0.640625 1.40625 -1.40625 1.40625 -2.5625 C 1.40625 -3.734375 1.984375 -4.484375 2.96875 -4.484375 C 3.953125 -4.484375 4.515625 -3.765625 4.515625 -2.609375 C 4.515625 -1.4375 3.953125 -0.640625 2.96875 -0.640625 Z M 2.96875 -0.640625 "/></g></g></g><g fill="#ffffff" fill-opacity="1"><g transform="translate(154.813175, 54.828629)"><g><path d="M 3.375 -5.25 C 2.609375 -5.25 2 -4.953125 1.65625 -4.40625 L 1.65625 -5.125 L 0.796875 -5.125 L 0.796875 0 L 1.703125 0 L 1.703125 -2.859375 C 1.703125 -4.078125 2.46875 -4.46875 3.171875 -4.46875 C 3.859375 -4.46875 4.1875 -4.078125 4.1875 -3.375 L 4.1875 0 L 5.109375 0 L 5.109375 -3.5625 C 5.109375 -4.640625 4.4375 -5.25 3.375 -5.25 Z M 3.375 -5.25 "/></g></g></g></svg>